<svg width="44" height="45" viewBox="0 0 44 45" fill="none" xmlns="http://www.w3.org/2000/svg">
<rect y="0.5" width="44" height="44" rx="5" fill="#EFE8FF"/>
<g clip-path="url(#clip0_8_5712)">
<path d="M29.51 18.5048H27.31C28.07 17.9648 28.59 17.2448 28.71 16.4348C28.83 15.6348 28.6 15.0648 28.39 14.7348C28 14.1348 27.3 13.7148 26.42 13.5648C25.15 13.3448 23.68 13.6948 22.68 14.4648C22.38 14.6948 22.15 14.9548 21.94 15.2248C21.74 14.9648 21.51 14.7048 21.21 14.4748C20.21 13.7048 18.74 13.3548 17.47 13.5748C16.59 13.7248 15.89 14.1448 15.5 14.7448C15.19 15.2248 15.08 15.8148 15.18 16.4448C15.31 17.2448 15.81 17.9548 16.56 18.4948H14.5C13.67 18.4948 13 19.1648 13 19.9948V22.9948C13 23.6248 13.39 24.1648 13.95 24.3848V29.9948C13.95 30.8248 14.62 31.4948 15.45 31.4948H28.45C29.28 31.4948 29.95 30.8248 29.95 29.9948V24.4248C30.56 24.2348 31 23.6748 31 23.0048V20.0048C31 19.1748 30.33 18.5048 29.5 18.5048H29.51ZM29.01 22.4948H23V20.5048H29.01V22.4948ZM23.91 16.0548C24.37 15.7048 25.02 15.5048 25.64 15.5048C25.79 15.5048 25.94 15.5148 26.09 15.5448C26.49 15.6148 26.67 15.7548 26.72 15.8248C26.74 15.8548 26.78 15.9448 26.75 16.1348C26.67 16.6648 25.85 17.3148 24.49 17.5048H23.05C23.16 17.0248 23.4 16.4548 23.91 16.0548ZM17.2 15.8448C17.25 15.7748 17.43 15.6348 17.83 15.5648C18.56 15.4448 19.44 15.6448 20.01 16.0848C20.52 16.4748 20.76 17.0448 20.87 17.5348H19.43C18.08 17.3348 17.26 16.6848 17.17 16.1548C17.14 15.9548 17.18 15.8648 17.2 15.8448ZM21.01 20.5148V22.5048H15.01V20.5148H21.01ZM15.96 24.5148H20.99L20.97 29.5148H15.96V24.5148ZM22.97 29.5148L22.99 24.5148H27.96V29.5148H22.97Z" fill="#8B54FF"/>
</g>
<defs>
<clipPath id="clip0_8_5712">
<rect width="18" height="18" fill="white" transform="translate(13 13.5)"/>
</clipPath>
</defs>
</svg>